<svg xmlns="http://www.w3.org/2000/svg" width="692.63" height="93.35" viewBox="0 0 692.63 93.35"><defs><style>.a50c223e-c8e7-46c5-b426-e67739cf5947{fill:#fff;}</style></defs><title>leanloan-headlogo</title><g id="c8b92c57-d2b2-4a88-aede-f596bfa4d66d" data-name="Calque 2"><g id="9f95b832-74df-4d23-8b26-def0b61fd448" data-name="Calque 1"><path class="a50c223e-c8e7-46c5-b426-e67739cf5947" d="M0,1.62H17.43V77.14h40.8V91.73H0Z"/><path class="a50c223e-c8e7-46c5-b426-e67739cf5947" d="M74.17,1.62H131V16.21H91.59V38.77h31.07V53.23H91.59V77.14H132V91.73H74.17Z"/><path class="a50c223e-c8e7-46c5-b426-e67739cf5947" d="M174.54.95h16.62l33.91,90.79h-17.7l-7.3-20.27H165.22l-7.3,20.27H140.63ZM170.35,57h24.45L182.65,23Z"/><path class="a50c223e-c8e7-46c5-b426-e67739cf5947" d="M239.66,1.62h17.56l43.91,63.5V1.62h17V91.73h-17.7L256.68,28.64V91.73h-17Z"/><path class="a50c223e-c8e7-46c5-b426-e67739cf5947" d="M340.57,1.62H358V77.14h40.8V91.73H340.57Z"/><path class="a50c223e-c8e7-46c5-b426-e67739cf5947" d="M458,0c30,0,48.5,20.4,48.5,45,0,25-19.32,48.37-49.72,48.37-29.72,0-48.1-21.89-48.1-46.47C408.66,23.37,426.08,0,458,0Zm-.81,78.63c19.86,0,31.21-16.08,31.21-32.56,0-16.08-10.67-31.34-30.67-31.34s-30.8,15.4-30.8,31.61C426.9,61.74,437,78.63,457.16,78.63Z"/><path class="a50c223e-c8e7-46c5-b426-e67739cf5947" d="M549,.95h16.62l33.91,90.79h-17.7l-7.3-20.27H539.7L532.4,91.73H515.11ZM544.83,57h24.45L557.13,23Z"/><path class="a50c223e-c8e7-46c5-b426-e67739cf5947" d="M614.14,1.62H631.7l43.91,63.5V1.62h17V91.73h-17.7L631.16,28.64V91.73h-17Z"/></g></g></svg>