<svg xmlns="http://www.w3.org/2000/svg" width="692.63" height="93.35" viewBox="0 0 692.63 93.35"><defs><style>.cfb3b2a7-4091-4258-b91a-39f098c1a992{fill:#fff;}</style></defs><title>logoheader</title><g id="0f304195-76fb-4d32-94f2-c7b08932d866" data-name="Calque 2"><g id="9acc27fe-6e6a-4578-b402-652cb0dfb213" data-name="Calque 1"><path class="cfb3b2a7-4091-4258-b91a-39f098c1a992" d="M17.43,1.62H0V91.73H58.23V77.14H17.43ZM91.59,53.23h31.07V38.77H91.59V16.21H131V1.62H74.17V91.73H132V77.14H91.59ZM174.54.95,140.63,91.73h17.29l7.3-20.27h34.86l7.3,20.27h17.7L191.16.95ZM170.35,57l12.29-34,12.16,34Zm130.77,8.11L257.22,1.62H239.66V91.73h17V28.64l43.77,63.09h17.7V1.62h-17ZM358,1.62H340.57V91.73H398.8V77.14H358ZM458,0c-31.88,0-49.31,23.37-49.31,46.88,0,24.59,18.37,46.47,48.1,46.47,30.4,0,49.72-23.37,49.72-48.37C506.47,20.4,488,0,458,0Zm-.81,78.63c-20.13,0-30.26-16.89-30.26-32.29,0-16.21,10.81-31.61,30.8-31.61S488.37,30,488.37,46.07C488.37,62.55,477,78.63,457.16,78.63ZM549,.95,515.11,91.73H532.4l7.29-20.27h34.86l7.3,20.27h17.7L565.64.95ZM544.83,57l12.29-34,12.16,34ZM675.61,1.62v63.5L631.7,1.62H614.14V91.73h17V28.64l43.77,63.09h17.7V1.62Z"/></g></g></svg>